# xmcd
#
# Track frame offsets:
#	150
#	12866
#	25174
#	40408
#	53848
#	68030
#	81571
#	98283
#	110763
#	126837
#	141794
#	154454
#
# Disc length: 2250 seconds
#
# Revision: 1
# Processed by: cddbd v1.5.2PL0 Copyright (c) Steve Scherf et al.
# Submitted via: audiograbber 1.83.01
#
DISCID=9f08c80c
DTITLE=Diverse kunstnere country - Western Edge
DYEAR=1998
DGENRE=Country
TTITLE0=If It´s All The Same To You - Rebecca Young
TTITLE1=Feel The Fire - Rebecca Young
TTITLE2=One Of Those Days - Michael Tuttle
TTITLE3=I´ve Got The Cure - Michael Tuttle
TTITLE4=All My Life Loving You - Jimmy Staton
TTITLE5=Without Your Love - Jimmy Staton
TTITLE6=Slow Dance - Brenda Dickens
TTITLE7=Loving Best Tonight - Brenda Dickens
TTITLE8=Here In The Dark - Jimi Rodriguez
TTITLE9=One Lifes Stand - Jimi Rodriguez
TTITLE10=Tear Jerkin´ Thang - Julie Breiger
TTITLE11=I Know What Love Is Worth - Julie Breiger
EXTD=
EXTT0=
EXTT1=
EXTT2=
EXTT3=
EXTT4=
EXTT5=
EXTT6=
EXTT7=
EXTT8=
EXTT9=
EXTT10=
EXTT11=
PLAYORDER=
